<svg xmlns="http://www.w3.org/2000/svg" viewBox="0 0 100 100" width="100" height="100" role="img" aria-label="Compara tu ingreso">
  <rect width="100" height="100" rx="14" fill="#faf9f6"/>
  <clipPath id="below"><rect width="60" height="100"/></clipPath>
  <!-- the income distribution, the share below you in blue -->
  <path d="M10 82 C22 82 26 24 38 24 C50 24 58 62 90 80 L90 82 Z" fill="#e2e6ec"/>
  <path d="M10 82 C22 82 26 24 38 24 C50 24 58 62 90 80 L90 82 Z" fill="#2458c6" fill-opacity="0.24" clip-path="url(#below)"/>
  <path d="M10 82 C22 82 26 24 38 24 C50 24 58 62 90 80" fill="none" stroke="#1a1d23" stroke-width="6" stroke-linecap="round" stroke-linejoin="round"/>
  <!-- you -->
  <line x1="60" y1="82" x2="60" y2="50.6" stroke="#2458c6" stroke-width="4"/>
  <circle cx="60" cy="50.6" r="8.5" fill="#2458c6" stroke="#faf9f6" stroke-width="3"/>
</svg>
